<svg viewBox="0 0 100 100" fill="none" xmlns="http://www.w3.org/2000/svg">
  <g transform="translate(-32, -8) scale(0.7)">
    <path fill="currentColor" id="inside" d="M112.907 148.631V148.631ZM100.796 66.6571V58.853C101.557 58.8023 102.317 58.7642 103.091 58.7388C124.409 58.0663 138.397 77.0624 138.397 77.0624C138.397 77.0624 123.293 98.0508 107.099 98.0508C104.765 98.0508 102.673 97.6701 100.796 97.0483V73.3952C109.09 74.3976 110.764 78.0649 115.748 86.3892L126.844 77.0243C126.844 77.0243 118.74 66.3906 105.095 66.3906C103.611 66.3906 102.191 66.4921 100.796 66.6444"/>
    <path fill="currentColor" id="box" d="M100.796 40.8848V52.5337C101.557 52.4702 102.33 52.4195 103.091 52.3941C132.729 51.3916 152.043 76.7198 152.043 76.7198C152.043 76.7198 129.863 103.71 106.756 103.71C104.638 103.71 102.66 103.52 100.796 103.19V110.385C102.394 110.588 104.042 110.702 105.767 110.702C127.275 110.702 142.823 99.7131 157.889 86.7064C160.388 88.7113 170.609 93.5714 172.715 95.7032C158.397 107.695 125.031 117.364 106.109 117.364C104.283 117.364 102.533 117.25 100.808 117.085V127.198H182.543V40.8848H100.808H100.796Z"/>
    <path fill="currentColor" id="innerarc" d="M100.796 97.0356V103.177C80.9104 99.6243 75.3811 78.9405 75.3811 78.9405C75.3811 78.9405 84.9306 68.3574 100.796 66.6317V73.3825H100.77C92.451 72.38 85.9451 80.1586 85.9451 80.1586C85.9451 80.1586 89.5848 93.2542 100.808 97.0229"/>
    <path fill="currentColor" id="otherarc" d="M65.4766 78.0395C65.4766 78.0395 77.2707 60.6296 100.808 58.8404V52.521C74.7344 54.6148 52.1606 76.7071 52.1606 76.7071C52.1606 76.7071 64.9439 113.697 100.808 117.085V110.372C74.4934 107.06 65.4766 78.0395 65.4766 78.0395V78.0395Z"/>
  </g>
</svg>
