<svg viewBox="0 0 24 24" xmlns="http://www.w3.org/2000/svg">
   <path transform="scale(0.03) translate(-110,-100)" stroke="currentColor" fill="none" stroke-width="60" d="m 429,808.39004 c -10.99127,-2.14562 -17.75097,-4.25604 -24.48428,-7.64415 -5.21927,-2.62627 -7.45638,-3.09766 -17.5,-3.68755 -13.39214,-0.78654 -17.46685,-2.31493 -22.24056,-8.34222 -2.35771,-2.97685 -5.62213,-5.1916 -12.34895,-8.37812 -5.02921,-2.38236 -10.67001,-4.5908 -12.53512,-4.90764 -1.8651,-0.31685 -6.99109,-1.64277 -11.39109,-2.9465 -4.4,-1.30372 -9.90256,-2.86102 -12.22792,-3.46066 -2.32535,-0.59964 -6.1988,-2.76266 -8.60767,-4.80672 -2.40887,-2.04407 -6.80631,-5.71846 -9.77209,-8.16533 -2.96578,-2.44686 -8.09232,-7.76419 -11.39232,-11.81628 -7.19724,-8.83753 -18.50709,-19.09159 -28.06733,-25.44723 -3.84723,-2.55763 -8.39962,-6.59365 -10.11642,-8.96894 -5.814,-8.04394 -14.13395,-15.56032 -25.88878,-23.38836 -14.42042,-9.60316 -22.60465,-17.05635 -25.50397,-23.22587 -2.06634,-4.39699 -10.3754,-13.73616 -22.68471,-25.49704 -7.02065,-6.70785 -12.8433,-16.16721 -16.38622,-26.62071 -4.94062,-14.57746 -5.9525,-20.41248 -5.28532,-30.4776 0.84917,-12.81056 0.74748,-14.15199 -1.53538,-20.25348 -2.46687,-6.59331 -2.62459,-15.09084 -0.37377,-20.13776 1.2968,-2.90776 1.67812,-7.09531 1.75,-19.21788 0.0908,-15.31773 0.12718,-15.56149 3.0919,-20.72951 1.65,-2.87623 5.61499,-8.56818 8.81108,-12.64877 5.17697,-6.60966 5.91241,-8.13476 6.73966,-13.97619 0.51072,-3.60631 1.56192,-8.26436 2.33601,-10.35123 7.77491,-20.96044 8.66324,-22.66363 13.39175,-25.67613 7.95065,-5.0653 12.67931,-10.26427 16.58474,-18.23427 3.12042,-6.36799 5.60452,-9.57043 12.91922,-16.65516 7.72075,-7.47801 9.87882,-9.00411 14.63676,-10.35053 3.06943,-0.8686 7.83078,-2.65039 10.58078,-3.95954 2.75,-1.30915 6.81032,-2.82874 9.02294,-3.37687 2.21262,-0.54814 6.93762,-3.2243 10.5,-5.94705 3.56238,-2.72274 10.07706,-6.37145 14.47706,-8.10825 14.91276,-5.88648 25.38989,-11.9458 31.96009,-18.48373 C 315.47777,344.52446 320.67538,342 329.08423,342 c 5.77489,0 6.9761,-0.37037 11.43427,-3.5256 13.59003,-9.6182 15.4893,-10.54071 24.61953,-11.9582 2.00092,-0.31065 5.60092,-2.05766 8,-3.88224 7.22752,-5.49678 8.71507,-5.96941 19.36197,-6.1518 5.5,-0.0942 10.80838,-0.52241 11.79639,-0.95152 0.98801,-0.42912 2.87161,-2.90207 4.18578,-5.49545 1.31416,-2.59338 4.00894,-6.13722 5.9884,-7.87521 C 417.93093,299.12175 418.41106,299 426.93256,299 h 8.86297 l 6.8916,-5.39231 c 6.95297,-5.44032 10.97071,-10.38575 13.2953,-16.36516 1.68802,-4.34197 11.98329,-13.75199 16.72598,-15.28777 9.51612,-3.08152 18.85735,-9.28167 32.79159,-21.7651 10.05696,-9.00984 16.89542,-11.5235 30.74788,-11.30219 8.47692,0.13542 9.08092,-0.0122 19.5,-4.76428 17.4435,-7.95596 22.18575,-9.01778 41.25212,-9.23662 14.72432,-0.169 17.25332,0.0541 23.5,2.07356 8.51808,2.75371 13.20266,5.4277 20.83771,11.8943 3.21074,2.71937 7.03574,5.15683 8.5,5.41656 1.46426,0.25974 5.36229,1.14937 8.66229,1.97695 7.75196,1.94406 18.65405,3.51068 30.21672,4.34209 8.5824,0.61712 9.99176,1.04977 20.47804,6.28635 10.92034,5.45334 11.48014,5.89613 18.4884,14.62362 3.97489,4.95 8.48478,9.5422 10.02196,10.2049 1.53718,0.66269 7.06988,1.22958 12.29488,1.25976 11.23888,0.0649 15.85473,1.83395 25.77142,9.87694 4.5599,3.69833 8.17397,5.65307 13.24286,7.16265 6.70711,1.99747 7.28879,2.43261 15.34056,11.47616 6.74157,7.57197 8.88212,10.78402 11.00713,16.51699 1.45092,3.91436 2.63803,8.71402 2.63803,10.66591 0,2.41383 0.93465,4.72897 2.92231,7.23859 1.60727,2.02935 4.04603,6.23066 5.41947,9.33626 2.11519,4.78282 3.23607,6.0218 7.32769,8.09979 8.62205,4.37882 11.6383,8.2126 14.68245,18.66205 0.88125,3.025 3.92727,9.325 6.76894,14 2.84166,4.675 7.97523,14.24526 11.40792,21.26725 9.68427,19.81033 11.78222,35.33404 6.10205,45.15178 -3.61572,6.24951 -4.45844,10.06226 -5.10148,23.08097 -0.73581,14.89651 -1.09447,16.69731 -4.65875,23.39077 -1.57883,2.96492 -2.8706,6.13932 -2.8706,7.05422 0,3.50607 -6.05646,10.98839 -13.49004,16.66596 -4.24075,3.23898 -8.3798,6.41751 -9.1979,7.06342 -1.18639,0.93667 -1.34445,2.50966 -0.78092,7.77179 0.55753,5.20612 0.26597,8.22721 -1.3825,14.32564 -1.14897,4.25051 -2.31463,8.8805 -2.59037,10.28886 -0.93697,4.78575 -6.48587,10.93566 -14.34792,15.90196 -4.24069,2.67876 -9.51035,6.41039 -11.71035,8.2925 -6.71853,5.74775 -40.33557,27.97147 -44.98597,29.73954 -1.45432,0.55294 -4.70586,1.00534 -7.22562,1.00534 -3.52233,0 -5.76117,0.77756 -9.6849,3.36362 -6.48954,4.27713 -9.88184,5.31949 -21.60351,6.63815 -8.2583,0.92904 -10.15353,1.51791 -14.5,4.50534 -6.63092,4.55759 -12.0809,9.86237 -17.21536,16.7567 -5.91877,7.94746 -10.30358,9.9845 -21.99876,10.21991 -10.16105,0.20454 -7.65439,-0.9209 -24.78588,11.12836 -9.95595,7.00242 -12.48121,9.531 -16.13087,16.15207 -2.0421,3.70472 -4.53256,7.9261 -5.53434,9.38084 -2.11255,3.06773 -17.58482,12.95735 -23.1401,14.79076 -7.84631,2.58951 -20.17493,14.57044 -29.75335,28.91423 C 565.53197,745.45307 555.86795,755 553.59324,755 c -0.83956,0 -3.7322,1.9125 -6.42809,4.25 -2.69589,2.3375 -6.53585,5.50664 -8.53326,7.04253 -3.84869,2.95943 -9.49622,10.20135 -13.88191,17.80099 -2.87328,4.9789 -6.71788,8.31538 -13.74998,11.93274 -3.59028,1.84686 -6.82484,2.44922 -16,2.97963 -12.16276,0.70313 -19.6603,2.69286 -29.35887,7.79141 -4.67795,2.45921 -6.22224,2.71865 -17.14113,2.87976 -7.19984,0.10623 -15.0001,-0.40859 -19.5,-1.28702 z"/>
</svg>
